<svg height="100px" viewBox="-16 0 464 464" width="100px" xmlns="http://www.w3.org/2000/svg"><path d="m304.464844 296c5.660156-10.960938 8.414062-23.191406 8-35.519531 0-40.648438-30.589844-74.800781-72-84.480469h-48c-41.40625 9.679688-72 43.832031-72 84.480469-.414063 12.328125 2.339844 24.558593 8 35.519531-15.832032 18.402344-24.371094 41.96875-24 66.238281 0 56.203125 50.144531 101.761719 112 101.761719 61.855468 0 112-45.558594 112-101.761719.371094-24.269531-8.167969-47.835937-24-66.238281zm0 0" fill="#f9bb4b"/><path d="m184.464844 0h64v80h-64zm0 0" fill="#f9bb4b"/><g fill="#394d5c"><path d="m160.464844 8h24v16h-24zm0 0"/><path d="m248.464844 8h24v16h-24zm0 0"/><path d="m160.464844 40h24v16h-24zm0 0"/><path d="m248.464844 40h24v16h-24zm0 0"/></g><path d="m145.121094 202.175781c-15.636719 15.386719-24.507813 36.367188-24.65625 58.304688-.414063 12.328125 2.339844 24.558593 8 35.519531-6.8125 7.679688-12.253906 16.476562-16.085938 26 63.515625 39.816406 134.921875 65.367188 209.277344 74.894531 4.460938-11.011719 6.773438-22.773437 6.808594-34.65625.019531-12.132812-2.023438-24.1875-6.039063-35.636719-71.0625-21.085937-133.3125-64.769531-177.304687-124.425781zm0 0" fill="#d5716e"/><path d="m192.464844 360h48v40h-48zm0 0" fill="#d9833b"/><path d="m168.464844 400h96v32h-96zm0 0" fill="#ffd782"/><path d="m192.464844 80h48v184h-48zm0 0" fill="#f1d77e"/><path d="m128.464844 368h16v16h-16zm0 0" fill="#ffd782"/><path d="m264.464844 232h16v16h-16zm0 0" fill="#ffd782"/><path d="m112.464844 102.238281v-81.34375l-88 29.335938v61.769531c-11.699219-.113281-21.808594 8.148438-24.023438 19.636719-2.21875 11.488281 4.085938 22.917969 14.984375 27.171875 10.902344 4.25 23.28125.105468 29.425781-9.851563 6.144532-9.953125 4.300782-22.878906-4.386718-30.71875v-24.476562l56-18.664063v20.902344c-11.699219-.113281-21.808594 8.148438-24.023438 19.636719-2.21875 11.488281 4.085938 22.917969 14.984375 27.171875 10.902344 4.25 23.28125.105468 29.425781-9.851563 6.144532-9.953125 4.300782-22.878906-4.386718-30.71875zm-88 41.761719c-4.417969 0-8-3.582031-8-8s3.582031-8 8-8c4.417968 0 8 3.582031 8 8s-3.582032 8-8 8zm16-67.097656v-15.132813l56-18.664062v15.132812zm56 51.097656c-4.417969 0-8-3.582031-8-8s3.582031-8 8-8c4.417968 0 8 3.582031 8 8s-3.582032 8-8 8zm0 0" fill="#f98c96"/><path d="m408.464844 85.273438v-49.410157l-72 30.863281v77.273438c-11.699219-.113281-21.808594 8.148438-24.023438 19.636719-2.21875 11.488281 4.085938 22.917969 14.984375 27.171875 10.902344 4.25 23.28125.105468 29.425781-9.851563 6.144532-9.953125 4.300782-22.878906-4.386718-30.71875v-40.964843zm-56-8 40-17.136719v14.589843l-40 17.136719zm-16 98.726562c-4.417969 0-8-3.582031-8-8s3.582031-8 8-8c4.417968 0 8 3.582031 8 8s-3.582032 8-8 8zm0 0" fill="#e4544f"/><path d="m372.042969 319.160156-7.152344-14.320312 11.574219-5.785156v-41.605469l56-11.210938v54.707031l-20.421875 10.214844-7.152344-14.320312 11.574219-5.785156v-25.292969l-24 4.789062v38.394531zm0 0" fill="#f98c96"/><path d="m60.042969 271.160156-7.152344-14.320312 11.574219-5.785156v-32l20.425781-10.214844 7.152344 14.320312-11.578125 5.785156v32zm0 0" fill="#e4544f"/><path d="m288.464844 104h16v16h-16zm0 0" fill="#67c086"/><path d="m120.464844 152h16v16h-16zm0 0" fill="#67c086"/><path d="m376.464844 208h16v16h-16zm0 0" fill="#67c086"/><path d="m272.464844 312c0 30.929688-25.070313 56-56 56-30.925782 0-56-25.070312-56-56s25.074218-56 56-56c30.929687 0 56 25.070312 56 56zm0 0" fill="#5a6470"/><path d="m240.464844 312c0 13.253906-10.746094 24-24 24s-24-10.746094-24-24 10.746094-24 24-24 24 10.746094 24 24zm0 0" fill="#2e3131"/></svg>