<?xml version="1.0" encoding="iso-8859-1"?><svg version="1.1" id="Capa_1" width="105px" height="105px" xmlns="http://www.w3.org/2000/svg" xmlns:xlink="http://www.w3.org/1999/xlink" x="0px" y="0px" viewBox="0 0 512 512" style="enable-background:new 0 0 512 512;" xml:space="preserve"><path style="fill:#D3843D;" d="M221.288,202.544c-44.917,10.414-78.102,47.104-78.102,90.772c0.043,13.998,3.523,27.77,10.127,40.11c-17.521,18.814-27.336,43.529-27.483,69.233c0,60.39,54.393,109.342,121.492,109.342s121.492-48.952,121.492-109.342c-0.148-25.704-9.962-50.419-27.483-69.233c6.604-12.34,10.084-26.112,10.127-40.11c0-43.668-33.185-80.367-78.102-90.772"/><g><rect x="186.576" y="17.356" style="fill:#AD6327;" width="26.034" height="17.356"/><rect x="186.576" y="52.068" style="fill:#AD6327;" width="26.034" height="17.356"/><rect x="186.576" y="86.78" style="fill:#AD6327;" width="26.034" height="17.356"/><rect x="282.034" y="17.356" style="fill:#AD6327;" width="26.034" height="17.356"/><rect x="282.034" y="52.068" style="fill:#AD6327;" width="26.034" height="17.356"/><rect x="282.034" y="86.78" style="fill:#AD6327;" width="26.034" height="17.356"/></g><path style="fill:#FDBD40;" d="M134.508,199.593c-14.379,0-26.034-11.655-26.034-26.034c0-4.79-3.888-8.678-8.678-8.678s-8.678,3.888-8.678,8.678c0,14.379-11.655,26.034-26.034,26.034c-4.79,0-8.678,3.888-8.678,8.678c0,4.79,3.888,8.678,8.678,8.678c14.379,0,26.034,11.655,26.034,26.034c0,4.79,3.888,8.678,8.678,8.678s8.678-3.888,8.678-8.678c0-14.379,11.655-26.034,26.034-26.034c4.79,0,8.678-3.888,8.678-8.678C143.186,203.481,139.299,199.593,134.508,199.593zM99.797,217.218c-2.525-3.402-5.545-6.422-8.947-8.947c3.402-2.525,6.422-5.545,8.947-8.947c2.525,3.402,5.545,6.422,8.947,8.947C105.342,210.796,102.322,213.816,99.797,217.218z"/><path style="fill:#36AFAD;" d="M342.78,97.879v67.003h17.356v-19.777l60.746-20.246v22.667h17.356v-81.46L342.78,97.879zM360.136,126.802v-16.41l60.746-20.254v16.419L360.136,126.802z"/><rect x="195.254" y="442.576" style="fill:#9C2D20;" width="104.136" height="34.712"/><g><rect x="221.288" y="399.186" style="fill:#AD6327;" width="52.068" height="43.39"/><rect x="221.288" y="95.458" style="fill:#AD6327;" width="52.068" height="199.593"/></g><rect x="203.932" style="fill:#9C2D20;" width="86.78" height="104.136"/><g><circle style="fill:#238892;" cx="351.458" cy="182.237" r="26.034"/><circle style="fill:#238892;" cx="429.559" cy="164.881" r="26.034"/></g><circle style="fill:#9C2D20;" cx="247.322" cy="347.119" r="60.746"/><circle style="fill:#CEAC9A;" cx="247.322" cy="347.119" r="34.712"/><g></g><g></g><g></g><g></g><g></g><g></g><g></g><g></g><g></g><g></g><g></g><g></g><g></g><g></g><g></g></svg>
